<svg xmlns="http://www.w3.org/2000/svg" xmlns:xlink="http://www.w3.org/1999/xlink" width="19" height="24" version="1.1" style=""><rect id="backgroundrect" width="100%" height="100%" x="0" y="0" fill="none" stroke="none"/>
    <!-- Generator: Sketch 41.2 (35397) - http://www.bohemiancoding.com/sketch -->
    <title>ic_home</title>
    <desc>Created with Sketch.</desc>
    <defs>
        <filter x="-50%" y="-50%" width="200%" height="200%" filterUnits="objectBoundingBox" id="filter-1">
            <feOffset dx="0" dy="2" in="SourceAlpha" result="shadowOffsetOuter1"/>
            <feGaussianBlur stdDeviation="2" in="shadowOffsetOuter1" result="shadowBlurOuter1"/>
            <feColorMatrix values="0 0 0 0 0   0 0 0 0 0   0 0 0 0 0  0 0 0 0.05 0" type="matrix" in="shadowBlurOuter1" result="shadowMatrixOuter1"/>
            <feMerge>
                <feMergeNode in="shadowMatrixOuter1"/>
                <feMergeNode in="SourceGraphic"/>
            </feMerge>
        </filter>
    </defs>
    
<g class="currentLayer" style=""><title>Layer 1</title><g id="OPt-2" stroke="none" stroke-width="1" fill="none" fill-rule="evenodd" class="">
        <g id="prog2_pro3_Mobile-Portrait_opt2-Copy-2" fill="#000000">
            <g id="nav">
                <g id="Group-6" filter="url(#filter-1)">
                    <g id="ic_home">
                        <g id="Group">
                            <path d="M17.467706431013184,6.861683150000001 L16.573931021013184,7.553928640000002 L15.134188271013183,8.668952449999999 C14.940412511013186,7.699766050000001 14.379424021013183,6.8666254900000006 13.603482241013182,6.324875410000001 L16.37511762101318,4.178328990000001 L15.516794931013184,3.03923189 C15.166001991013182,2.5734621900000008 15.253887101013184,1.9073473899999978 15.713276131013181,1.5514933599999985 L17.802732261013183,4.322841409999999 C18.112101227013184,4.7333694699999995 18.220137970013184,5.2349187499999985 18.145687787013188,5.707759119999999 C18.076089154013182,6.1503534900000005 17.846767851013183,6.568070479999999 17.467706431013184,6.861683150000001 L17.467706431013184,6.861683150000001 z" id="Shape"/>
                            <path d="M8.682587501013181,16.551279699999995 C11.773948561013185,14.930758699999998 14.526831941013185,14.4725332 15.221233581013184,15.5854991 C15.791551431013183,16.499444600000004 14.821273541013184,18.232743299999996 12.921954621013185,20.007851099999996 L14.724898851013183,22.940193700000002 L15.952860311013183,22.940193700000002 C16.517674001013184,22.955895999999996 16.971092311013184,23.423746699999995 16.971092311013184,24 L15.376477941013185,24 L13.262391371013184,24 L12.610812811013183,22.940193700000002 L11.565991941013184,21.2407593 L11.157635641013183,20.5769145 C11.301683951013182,20.337786899999998 11.385370681013185,20.057417799999996 11.385370681013185,19.756805400000005 C11.385370681013185,18.8860169 10.689103351013184,18.179960100000002 9.830033701013186,18.179960100000002 C9.782360051013185,18.179960100000002 9.735805121013186,18.1845256 9.689250171013185,18.1886637 L8.682587501013181,16.551279699999995 L8.682587501013181,16.551279699999995 z" id="Shape"/>
                            <path d="M0.036013101013182336,6.45285797 C0.19741480101318487,5.665121469999999 0.8855663010131849,5.07295379 1.7104880010131822,5.07295379 C1.9459667010131838,5.07295379 2.1702503010131835,5.121384670000001 2.3741947010131845,5.208503710000002 C2.9891100010131844,5.471397889999999 3.4209761010131814,6.08801776 3.4209761010131814,6.80719856 L3.4209761010131814,15.031192000000004 C3.4209761010131814,15.617092900000003 3.8895074010131836,16.0924154 4.467757401013184,16.0924154 C4.8887074010131855,16.0924154 5.250788701013185,15.839762399999998 5.416950101013185,15.476458700000002 C5.431690801013183,15.444202699999998 5.444938701013186,15.4108826 5.456506901013185,15.3770193 L6.428463901013181,12.9346842 L4.541834401013183,6.4808568300000005 C4.540528101013184,6.476718640000001 4.538754201013184,6.472367330000001 4.537447901013184,6.4679926399999985 C4.514498001013184,6.395724479999998 4.4943454010131845,6.323456289999999 4.474660301013184,6.2509989300000015 C3.7875362010131823,3.722089650000001 5.024081001013183,1.0821291700000017 7.336233501013183,0 L11.779919321013182,1.5664388000000002 C12.325421121013186,1.7553385299999995 12.617063461013181,2.3556411699999984 12.433550651013185,2.9090026900000012 L11.308214531013185,2.5010286899999983 C10.863379621013184,2.33972627 10.373949241013186,2.574597409999999 10.214880241013184,3.0254216499999984 C10.055810241013184,3.476245630000001 10.287464261013184,3.972662849999999 10.732205851013184,4.133870959999999 L11.893274121013185,4.55478059 C11.690541741013185,5.098682669999999 11.093260751013183,5.376782240000001 10.553730701013183,5.175987759999998 L9.327542111013184,4.71937003 C9.240497281013184,5.219594829999998 9.517772131013182,5.725352990000001 10.005430671013183,5.90195568 L12.354436051013185,6.76860507 C13.345424931013184,7.198051469999999 14.048317151013183,8.17575179 14.097017191013183,9.325229919999998 C14.098790061013183,9.367417410000002 14.101681601013183,9.40941672 14.101681601013183,9.452006050000001 C14.101681601013183,9.47809045 14.099069961013186,9.503654000000001 14.098323501013184,9.529571570000002 C14.102987921013185,9.517630050000001 14.105973801013185,9.509707679999998 14.105973801013185,9.509707679999998 L17.772504301013182,9.509707679999998 L17.772504301013182,8.07624109 C17.772504301013182,7.675644990000002 18.261094910013185,7.327263439999999 18.570744330013184,7.146593790000001 L18.819284674013183,7.014922130000002 L18.819284674013183,10.527868699999999 C18.80603662201318,11.516730799999998 18.01246127501318,12.314422700000001 17.033973751013185,12.314422700000001 L12.898350621013183,12.314422700000001 C12.532071451013184,12.314422700000001 12.176054221013182,12.358596900000002 11.834964351013184,12.441483599999998 C11.851628451013184,12.437392199999998 11.868037721013184,12.431290699999998 11.884620551013185,12.426466900000001 C11.866754471013184,12.431787200000002 11.848865311013185,12.437085 11.830672151013182,12.441483599999998 C11.820036981013182,12.444108100000001 11.809307491013183,12.4469463 11.798578031013186,12.4496888 C9.955424351013185,12.9121481 8.555611601013183,14.514271100000002 8.369206301013186,16.476576800000004 C8.366033801013181,16.510819499999997 8.363982001013184,16.5454163 8.361462701013181,16.580037500000003 C8.353159201013185,16.6937358 8.347655001013184,16.8080018 8.347655001013184,16.923783400000005 C8.347655001013184,18.028424099999995 8.731194201013182,19.042069499999997 9.370271451013181,19.8360962 C9.417106321013186,19.894342100000003 9.465340801013184,19.9514974 9.514880611013183,20.0072836 C9.645401211013183,20.1958985 9.722743941013185,20.4251893 9.722743941013185,20.6732097 C9.722743941013185,21.3151083 9.209336291013184,21.835553000000004 8.576136501013181,21.835553000000004 C8.348308101013181,21.835553000000004 8.136152601013183,21.768202700000003 7.957770801013183,21.652256300000005 L5.636287401013185,20.263083899999998 C5.316002301013185,20.4447001 5.099370001013185,20.7912598 5.099370001013185,21.1897034 C5.099370001013185,21.453023299999998 5.193972801013182,21.694232200000002 5.350709101013184,21.8796326 L6.314083701013182,22.940193700000002 L7.489238501013183,22.940193700000002 L7.489798301013181,22.940193700000002 L7.546709501013183,22.940193700000002 C8.111336501013184,22.955895999999996 8.564754801013184,23.423746699999995 8.564754801013184,24 L6.471566401013185,24 L6.471193101013185,24 L5.207407201013183,24 C5.207407201013183,22.999597199999997 4.407580401013185,22.1887573 3.4209761010131814,22.1887573 L3.4209761010131814,19.099202500000004 C4.239647101013183,18.9338562 4.856799901013183,18.201928699999996 4.856799901013183,17.323337800000004 C4.856799901013183,17.279282600000002 4.854749101013184,17.235557 4.851668901013184,17.192069500000002 C4.746990701013182,17.207936599999996 4.641006301013185,17.2189087 4.531943701013184,17.2189087 C4.1249880010131825,17.2189087 3.745832301013184,17.1025614 3.4209761010131814,16.903942900000004 C2.7944002010131825,16.5210103 2.3741947010131845,15.8267314 2.3741947010131845,15.031192000000004 L2.3741947010131845,6.807198589999999 C2.3741947010131845,6.424007169999999 2.067811601013184,6.113486209999998 1.6899642010131828,6.113486209999998 C1.3254569010131831,6.113486209999998 1.0283083010131833,6.402724190000001 1.0077824010131842,6.76730448 C1.4778086010131837,7.093527729999998 1.7864312010131833,7.641142770000002 1.7864312010131833,8.262302640000001 C1.7864312010131833,9.26260984 0.9866987010131822,10.073450700000002 1.0131842032023997e-9,10.073450700000002 L1.0131842032023997e-9,6.807198589999999 C1.0101318181909846e-7,6.685742690000001 0.01250140101318209,6.567408239999999 0.036013101013182336,6.45285797 L0.036013101013182336,6.45285797 z" id="Shape" transform=""/>
                        </g>
                    </g>
                </g>
            </g>
        </g>
    </g></g></svg>